<?xml version="1.0" encoding="UTF-8"?><svg id="Layer_2" xmlns="http://www.w3.org/2000/svg" viewBox="0 0 624.14 115.28"><defs><style>.cls-1{fill:#fff;stroke-width:0px;}</style></defs><g id="Layer_1-2"><path class="cls-1" d="m0,112.02L3.04,1.12l76.93,2.11-.4,14.74-59.87-1.64-.91,33.35,48.39,1.33-.4,14.74-48.39-1.33-1.32,48.08-17.06-.47Z"/><path class="cls-1" d="m91.72,76.33l-1.6-73.22,17.06-.37,1.6,73.22c.38,17.22,9.24,24.94,26.77,24.56,17.68-.39,26.04-8.49,25.67-25.7l-1.6-73.22,17.22-.38,1.6,73.22c.52,23.89-12,40.15-42.56,40.82-30.41.66-43.63-15.03-44.15-38.92Z"/><path class="cls-1" d="m194.07,56.73C194.61,23.37,215.32-.5,246.97,0c28.7.46,43.66,16.07,46.89,37.23l-17.84-.29c-2.72-14.01-12.99-21.94-29.44-22.2-24.51-.4-34.33,21.48-34.67,42.27-.34,20.95,6.44,43.09,32.35,43.51,18.31.3,33.1-12.19,33.55-30.65l-32.74-.53.23-14.27,50.11.81-.94,58.03-11.79-.19-3.94-15.43h-.31c-7.94,11.2-18.44,17.23-35.35,16.96-31.96-.52-49.57-25.01-49.02-58.52Z"/><path class="cls-1" d="m303.78,113.54L344.08,2.24l18.46-.16,42.55,110.58-18.62.16-9.39-26.61-46.39.41-8.92,26.77-18,.16Zm31.91-41.4l36.46-.32-18.63-53.84h-.31s-17.53,54.16-17.53,54.16Z"/><path class="cls-1" d="m406.78,111.72l.46-14.73,66.28-79.12v-.31s-60.63-1.89-60.63-1.89l.46-14.73,81.58,2.55-.46,14.73-66.28,79.12v.31s65.28,2.04,65.28,2.04l-.46,14.73-86.23-2.69Z"/><path class="cls-1" d="m503.74,114.14l-.36-14.74,61.76-82.69v-.31s-60.66,1.49-60.66,1.49l-.36-14.74,81.59-2,.36,14.74-61.76,82.69v.31s65.31-1.6,65.31-1.6l.36,14.74-86.25,2.12Z"/><path class="cls-1" d="m607.08,113.1V2.15h17.07v110.94h-17.07Z"/></g></svg>